[Header]
FileType HTR
DataType HTRS
FileVersion 1
NumSegments 22
NumFrames 7
DataFrameRate 24
EulerRotationOrder ZYX
CalibrationUnits mm
RotationUnits Degrees
GlobalAxisofGravity Y
BoneLengthAxis Y
ScaleFactor 1.0
[SegmentNames&Hierarchy]
reference	GLOBAL
Hips	reference
Spine	Hips
Spine1	Spine
Neck	Spine1
Head	Neck
LeftShoulder	Spine1
LeftArm	LeftShoulder
LeftForeArm	LeftArm
LeftHand	LeftForeArm
RightShoulder	Spine1
RightArm	RightShoulder
RightForeArm	RightArm
RightHand	RightForeArm
LeftUpLeg	Hips
LeftLeg	LeftUpLeg
LeftFoot	LeftLeg
LeftToeBase	LeftFoot
RightUpLeg	Hips
RightLeg	RightUpLeg
RightFoot	RightLeg
RightToeBase	RightFoot
[BasePosition]
reference	0	0	0	0	0	0	1
Hips	0	0	0	0	0	0	1
Spine	0	0	0	0	-0	90	1
Spine1	0	0	0	0	0	0	1
Neck	0	0	0	-7.352430803	-7.352430803	90	1
Head	0	0	0	0	-0	90	1
LeftShoulder	0	0	0	0	0	0	1
LeftArm	0	0	0	0	0	0	1
LeftForeArm	0	0	0	0	0	0	1
LeftHand	0	0	0	0	0	0	1
RightShoulder	0	0	0	0	-0	180	1
RightArm	0	0	0	0	-0	180	1
RightForeArm	0	0	0	0	-0	180	1
RightHand	0	0	0	0	-0	180	1
LeftUpLeg	0	0	0	0	-0	-90	1
LeftLeg	0	0	0	0	-0	-90	1
LeftFoot	0	0	0	66.57150701	-66.57150701	-90	1
LeftToeBase	0	0	0	0	-90	0	1
RightUpLeg	0	0	0	0	-0	-90	1
RightLeg	0	0	0	0	-0	-90	1
RightFoot	0	0	0	66.57150701	-66.57150701	-90	1
RightToeBase	0	0	0	0	-90	0	1
[reference]
48	0	0	0	0	-0	0	1.0
49	0	0	0	0	-0	0	1.0
50	0	0	0	0	-0	0	1.0
51	0	0	0	0	-0	0	1.0
52	0	0	0	0	-0	0	1.0
53	0	0	0	0	-0	0	1.0
54	0	0	0	0	-0	0	1.0
[Hips]
48	-2.049702168	8.837576866	3.374236584	-357.3824768	-67.18365479	352.7254333	1.0
49	-2.128094673	8.843458176	3.385004044	-357.5961304	-65.22216034	354.7064209	1.0
50	-2.20039463	8.849831581	3.393453598	-357.9222412	-63.63188171	357.197113	1.0
51	-2.257497549	8.856841087	3.400068045	-356.3770752	-61.54415131	358.4748535	1.0
52	-2.301587582	8.864627838	3.405330181	-354.9093933	-60.66764069	359.6222229	1.0
53	-2.338060856	8.876791	3.409723043	-351.4815063	-61.39344406	355.5983582	1.0
54	-2.410247803	8.899947166	3.413729429	-349.9708252	-61.3986969	354.7078857	1.0
[Spine]
48	0	0.7478299737	0	-5.323050976	0.3614337444	-90.9317627	1.0
49	0	0.7478299737	0	-6.375897884	0.3037823737	-90.15149689	1.0
50	0	0.7478299737	0	-7.733905792	0.7532019615	-89.35472107	1.0
51	0	0.7478299737	0	-9.867620468	0.4508899748	-89.12002563	1.0
52	0	0.7478299737	0	-11.59633732	0.7661247849	-88.93663025	1.0
53	0	0.7478299737	0	-11.04105949	1.096052051	-86.55422211	1.0
54	0	0.7478299737	0	-11.98835182	0.2928399444	-86.82800293	1.0
[Spine1]
48	0	2.049309969	0	7.117521286	0.1412765533	-0.5797629356	1.0
49	0	2.049309969	0	5.979470253	0.1623508632	-1.077984095	1.0
50	0	2.049309969	0	4.416024685	0.3476691842	-2.300685406	1.0
51	0	2.049309969	0	3.986186743	0.1672854871	-2.913379431	1.0
52	0	2.049309969	0	3.936902523	0.2774120271	-3.070098877	1.0
53	0	2.049309969	0	4.513958454	0.3889582753	-3.195846081	1.0
54	0	2.049309969	0	5.665960312	0.1070196033	-2.427261829	1.0
[Neck]
48	0	2.231709957	0	7.776754856	4.330954552	-85.76226807	1.0
49	0	2.231709957	0	7.980600834	2.450358152	-85.92378998	1.0
50	0	2.231709957	0	8.040102005	0.1813997775	-86.38233185	1.0
51	0	2.231709957	0	8.136412621	-2.25180912	-87.25027466	1.0
52	0	2.231709957	0	4.482681274	-5.056019306	-88.15348816	1.0
53	0	2.231709957	0	2.319867373	-7.313797951	-88.10487366	1.0
54	0	2.231709957	0	2.212402344	-8.662734985	-87.37058258	1.0
[Head]
48	0	1.413589954	0.1823999882	-11.95057392	-2.417366743	-91.06951904	1.0
49	0	1.413589954	0.1823999882	-12.6787796	-4.322419167	-90.80645752	1.0
50	0	1.413589954	0.1823999882	-13.03933525	-6.652956009	-89.7084198	1.0
51	0	1.413589954	0.1823999882	-14.21586418	-9.165437698	-88.35693359	1.0
52	0	1.413589954	0.1823999882	-10.08956528	-12.39138222	-87.51750183	1.0
53	0	1.413589954	0.1823999882	-8.894070625	-14.77659893	-87.75758362	1.0
54	0	1.413589954	0.1823999882	-10.44556808	-16.45889854	-86.79747772	1.0
[LeftShoulder]
48	0.3649300039	1.825889945	-0.04271000251	-12.63631248	-9.437185287	1.897562861	1.0
49	0.3649300039	1.825889945	-0.04271000251	-12.99062729	-9.114866257	2.081195593	1.0
50	0.3649300039	1.825889945	-0.04271000251	-12.32950401	-9.545473099	2.068813801	1.0
51	0.3649300039	1.825889945	-0.04271000251	-12.17353439	-8.803222656	2.28131175	1.0
52	0.3649300039	1.825889945	-0.04271000251	-12.16396236	-8.458177567	1.534279585	1.0
53	0.3649300039	1.825889945	-0.04271000251	-11.5070343	-7.930744648	2.052923441	1.0
54	0.3649300039	1.825889945	-0.04271000251	-10.76186371	-7.61027813	2.618265629	1.0
[LeftArm]
48	1.24003005	0	0	38.4241333	-10.89854813	-68.76250458	1.0
49	1.24003005	0	0	39.11528397	-13.74742317	-67.75016785	1.0
50	1.24003005	0	0	38.78279495	-15.46945763	-67.08789825	1.0
51	1.24003005	0	0	37.49420166	-16.56038857	-66.73308563	1.0
52	1.24003005	0	0	37.6949234	-16.71483231	-66.30413055	1.0
53	1.24003005	0	0	36.21509933	-15.24511051	-67.67646027	1.0
54	1.24003005	0	0	34.4366951	-13.57981396	-68.38510895	1.0
[LeftForeArm]
48	2.847419977	0	0	-27.16339493	-33.06598282	27.31102943	1.0
49	2.847419977	0	0	-29.2713356	-36.43658447	30.10366631	1.0
50	2.847419977	0	0	-32.05513763	-39.25803375	34.49549866	1.0
51	2.847419977	0	0	-34.70302963	-43.52780914	37.80475235	1.0
52	2.847419977	0	0	-38.33734131	-46.25820541	42.699646	1.0
53	2.847419977	0	0	-41.99783325	-48.72376251	47.80065536	1.0
54	2.847419977	0	0	-43.98636246	-51.19542694	50.23348236	1.0
[LeftHand]
48	2.258270025	0	0	-18.92881775	-8.33079052	0.2465827763	1.0
49	2.258270025	0	0	-19.27946854	-8.95072937	1.618770599	1.0
50	2.258270025	0	0	-19.47866821	-9.142238617	0.7894251943	1.0
51	2.258270025	0	0	-19.3854847	-9.896866798	2.939786673	1.0
52	2.258270025	0	0	-19.37586212	-10.62284088	-0.01308644284	1.0
53	2.258270025	0	0	-19.31344604	-10.70756531	0.1350748092	1.0
54	2.258270025	0	0	-18.66235352	-10.8314991	-0.05188069865	1.0
[RightShoulder]
48	-0.3646599948	1.825889945	-0.04271000251	-10.34316158	10.44787216	-179.6682129	1.0
49	-0.3646599948	1.825889945	-0.04271000251	-12.1509819	10.79929638	-180.5323334	1.0
50	-0.3646599948	1.825889945	-0.04271000251	-12.50662613	10.88948536	-181.1998138	1.0
51	-0.3646599948	1.825889945	-0.04271000251	-9.940897942	11.02862549	-180.1756439	1.0
52	-0.3646599948	1.825889945	-0.04271000251	-11.47212315	10.58561134	-180.7239685	1.0
53	-0.3646599948	1.825889945	-0.04271000251	-10.01565266	10.50333786	-180.010376	1.0
54	-0.3646599948	1.825889945	-0.04271000251	-10.19753265	10.38888359	-179.5462494	1.0
[RightArm]
48	-1.24003005	0	0	34.62265015	11.81968784	-118.9045258	1.0
49	-1.24003005	0	0	35.49026108	12.94688416	-119.4339447	1.0
50	-1.24003005	0	0	35.80813599	13.69193649	-119.0739746	1.0
51	-1.24003005	0	0	36.54835892	15.9348793	-120.1664124	1.0
52	-1.24003005	0	0	39.15766144	15.15628815	-118.3649139	1.0
53	-1.24003005	0	0	38.55770111	16.15544319	-117.4286346	1.0
54	-1.24003005	0	0	39.87365723	15.70668983	-115.5334549	1.0
[RightForeArm]
48	-2.847419977	0	0	-6.930954933	19.33661079	161.2254333	1.0
49	-2.847419977	0	0	-9.448893547	21.95549583	157.3417816	1.0
50	-2.847419977	0	0	-10.76183128	24.68680573	153.0133362	1.0
51	-2.847419977	0	0	-14.35170555	27.24124718	146.880127	1.0
52	-2.847419977	0	0	-18.08851814	28.94374084	140.9876404	1.0
53	-2.847419977	0	0	-20.28770828	32.1886673	137.6047974	1.0
54	-2.847419977	0	0	-20.78598595	34.06138992	135.5667572	1.0
[RightHand]
48	-2.258270025	0	0	-4.612863541	8.022319794	167.107666	1.0
49	-2.258270025	0	0	-5.891807556	7.584195137	166.5868683	1.0
50	-2.258270025	0	0	-5.60216713	8.532155991	168.652771	1.0
51	-2.258270025	0	0	-6.697964668	8.791758537	172.2742615	1.0
52	-2.258270025	0	0	-8.22123909	9.756089211	173.2485199	1.0
53	-2.258270025	0	0	-8.063433647	9.452166557	173.3920746	1.0
54	-2.258270025	0	0	-7.273106575	12.73638916	173.2927551	1.0
[LeftUpLeg]
48	0.9119900465	0	0	-0.106387414	6.441103935	89.32034302	1.0
49	0.9119900465	0	0	0.5660941601	3.829717636	88.56689453	1.0
50	0.9119900465	0	0	1.392964363	0.7772073746	87.27489471	1.0
51	0.9119900465	0	0	0.3311812282	-2.763740063	86.97857666	1.0
52	0.9119900465	0	0	-0.9747623205	-1.199269295	86.26836395	1.0
53	0.9119900465	0	0	-0.8499981165	-2.117032528	88.37474823	1.0
54	0.9119900465	0	0	-0.6826120615	-4.173827171	89.31654358	1.0
[LeftLeg]
48	0	-4.371409893	0	13.35327816	-5.478745461	84.80780029	1.0
49	0	-4.371409893	0	9.532586098	-6.359406948	84.67327118	1.0
50	0	-4.371409893	0	5.326948166	-6.567123413	85.44363403	1.0
51	0	-4.371409893	0	2.264907837	-5.419378757	85.59774017	1.0
52	0	-4.371409893	0	1.861173034	-6.849758148	86.77304077	1.0
53	0	-4.371409893	0	1.05126214	-3.542309523	87.04714203	1.0
54	0	-4.371409893	0	-0.07327775657	-1.104428649	86.91758728	1.0
[LeftFoot]
48	0	-3.918009996	0	-100.4127197	115.9798508	-57.52673721	1.0
49	0	-3.918009996	0	-96.79256439	116.4819489	-55.43117523	1.0
50	0	-3.918009996	0	-94.14961243	116.7019882	-54.51707458	1.0
51	0	-3.918009996	0	-95.6473999	116.2556534	-55.44972229	1.0
52	0	-3.918009996	0	-97.17339325	114.6546936	-56.39749527	1.0
53	0	-3.918009996	0	-98.61956024	113.827179	-59.49910736	1.0
54	0	-3.918009996	0	-97.67368317	113.3206253	-60.33518982	1.0
[LeftToeBase]
48	0	-0.5927900076	1.367989898	0	0	0	1.0
49	0	-0.5927900076	1.367989898	0	0	0	1.0
50	0	-0.5927900076	1.367989898	0	0	0	1.0
51	0	-0.5927900076	1.367989898	0	0	0	1.0
52	0	-0.5927900076	1.367989898	0	0	0	1.0
53	0	-0.5927900076	1.367989898	0	0	0	1.0
54	0	-0.5927900076	1.367989898	0	0	0	1.0
[RightUpLeg]
48	-0.9119900465	0	0	-31.18066216	-5.588148117	102.9430542	1.0
49	-0.9119900465	0	0	-20.83465958	-4.907003403	98.01776123	1.0
50	-0.9119900465	0	0	-10.96053982	-7.51633358	94.86228943	1.0
51	-0.9119900465	0	0	-4.319302559	-9.88891983	92.01737976	1.0
52	-0.9119900465	0	0	-1.913384676	-12.24056721	91.35379028	1.0
53	-0.9119900465	0	0	-0.4927179515	-11.85573196	92.30697632	1.0
54	-0.9119900465	0	0	0.3401204348	-12.74506283	91.84577942	1.0
[RightLeg]
48	0	-4.371409893	0	64.62498474	9.631912231	64.75294495	1.0
49	0	-4.371409893	0	49.13592529	2.649754524	70.30198669	1.0
50	0	-4.371409893	0	30.19107056	-1.520023942	75.16021729	1.0
51	0	-4.371409893	0	14.93271446	-0.6558962464	82.35726166	1.0
52	0	-4.371409893	0	6.969704628	-1.733432055	83.9597168	1.0
53	0	-4.371409893	0	3.528915882	-5.932809353	86.58834076	1.0
54	0	-4.371409893	0	1.576631308	-3.640871048	89.12268829	1.0
[RightFoot]
48	0	-3.918009996	0	67.79502106	61.00008392	102.3201294	1.0
49	0	-3.918009996	0	63.93573761	64.22224426	96.30257416	1.0
50	0	-3.918009996	0	62.89680099	61.00785446	98.54055786	1.0
51	0	-3.918009996	0	46.76473618	59.48422623	87.71740723	1.0
52	0	-3.918009996	0	50.95913696	63.48131561	91.44543457	1.0
53	0	-3.918009996	0	60.70347977	62.74035263	96.47368622	1.0
54	0	-3.918009996	0	61.18293381	62.85089874	94.17163849	1.0
[RightToeBase]
48	0	-0.5927900076	1.367989898	0	0	0	1.0
49	0	-0.5927900076	1.367989898	0	0	0	1.0
50	0	-0.5927900076	1.367989898	0	0	0	1.0
51	0	-0.5927900076	1.367989898	0	0	0	1.0
52	0	-0.5927900076	1.367989898	0	0	0	1.0
53	0	-0.5927900076	1.367989898	0	0	0	1.0
54	0	-0.5927900076	1.367989898	0	0	0	1.0
[EndOfFile]
